HIERARCHY
ROOT hip
{
  OFFSET 0 0 0
  CHANNELS 6 Xposition Yposition Zposition Zrotation Yrotation Xrotation
  JOINT abdomen
  {
    OFFSET 0 20.6881 -0.73152
    CHANNELS 3 Zrotation Xrotation Yrotation
    JOINT chest
    {
      OFFSET 0 11.7043 -0.48768
      CHANNELS 3 Zrotation Xrotation Yrotation
      JOINT neck
      {
        OFFSET 0 22.1894 -2.19456
        CHANNELS 3 Zrotation Xrotation Yrotation
        JOINT head
        {
          OFFSET -0.24384 7.07133 1.2192
          CHANNELS 3 Zrotation Xrotation Yrotation
          JOINT leftEye
          {
            OFFSET 4.14528 8.04674 8.04672
            CHANNELS 3 Zrotation Xrotation Yrotation
            End Site
            {
              OFFSET 1 0 0
            }
          }
          JOINT rightEye
          {
            OFFSET -3.6576 8.04674 8.04672
            CHANNELS 3 Zrotation Xrotation Yrotation
            End Site
            {
              OFFSET 1 0 0
            }
          }
        }
      }
      JOINT rCollar
      {
        OFFSET -2.68224 19.2634 -4.8768
        CHANNELS 3 Zrotation Xrotation Yrotation
        JOINT rShldr
        {
          OFFSET -8.77824 -1.95073 1.46304
          CHANNELS 3 Zrotation Xrotation Yrotation
          JOINT rForeArm
          {
            OFFSET -28.1742 -1.7115 0.48768
            CHANNELS 3 Zrotation Xrotation Yrotation
            JOINT rHand
            {
              OFFSET -22.5879 0.773209 7.07136
              CHANNELS 3 Zrotation Xrotation Yrotation
              JOINT rThumb1
              {
                OFFSET -1.2192 -0.487915 3.41376
                CHANNELS 3 Zrotation Xrotation Yrotation
                JOINT rThumb2
                {
                  OFFSET -3.37035 -0.52449 3.41376
                  CHANNELS 3 Zrotation Xrotation Yrotation
                  End Site
                  {
                    OFFSET -1.78271 -1.18214 1.43049
                  }
                }
              }
              JOINT rIndex1
              {
                OFFSET -7.75947 0.938293 5.60832
                CHANNELS 3 Zrotation Xrotation Yrotation
                JOINT rIndex2
                {
                  OFFSET -2.54057 -0.884171 1.56538
                  CHANNELS 3 Zrotation Xrotation Yrotation
                  End Site
                  {
                    OFFSET -1.62519 -0.234802 1.16502
                  }
                }
              }
              JOINT rMid1
              {
                OFFSET -8.24714 1.18213 3.41376
                CHANNELS 3 Zrotation Xrotation Yrotation
                JOINT rMid2
                {
                  OFFSET -3.10165 -0.590103 1.0647
                  CHANNELS 3 Zrotation Xrotation Yrotation
                  End Site
                  {
                    OFFSET -2.48547 -0.328903 0.83742
                  }
                }
              }
              JOINT rRing1
              {
                OFFSET -8.82822 0.546677 1.51678
                CHANNELS 3 Zrotation Xrotation Yrotation
                JOINT rRing2
                {
                  OFFSET -2.60934 -0.819778 -0.0198488
                  CHANNELS 3 Zrotation Xrotation Yrotation
                  End Site
                  {
                    OFFSET -2.33842 -0.294052 0.168128
                  }
                }
              }
              JOINT rPinky1
              {
                OFFSET -8.27202 -0.0477905 -0.4584
                CHANNELS 3 Zrotation Xrotation Yrotation
                JOINT rPinky2
                {
                  OFFSET -1.82734 -0.647385 -0.700984
                  CHANNELS 3 Zrotation Xrotation Yrotation
                  End Site
                  {
                    OFFSET -1.69225 -0.51767 -0.607171
                  }
                }
              }
            }
          }
        }
      }
      JOINT lCollar
      {
        OFFSET 2.68224 19.2634 -4.8768
        CHANNELS 3 Zrotation Xrotation Yrotation
        JOINT lShldr
        {
          OFFSET 8.77824 -1.95073 1.46304
          CHANNELS 3 Zrotation Xrotation Yrotation
          JOINT lForeArm
          {
            OFFSET 28.1742 -1.7115 0.48768
            CHANNELS 3 Zrotation Xrotation Yrotation
            JOINT lHand
            {
              OFFSET 22.5879 0.773209 7.07136
              CHANNELS 3 Zrotation Xrotation Yrotation
              JOINT lThumb1
              {
                OFFSET 1.2192 -0.487915 3.41376
                CHANNELS 3 Zrotation Xrotation Yrotation
                JOINT lThumb2
                {
                  OFFSET 3.37035 -0.52449 3.41376
                  CHANNELS 3 Zrotation Xrotation Yrotation
                  End Site
                  {
                    OFFSET 1.78271 -1.18214 1.43049
                  }
                }
              }
              JOINT lIndex1
              {
                OFFSET 7.75947 0.938293 5.60832
                CHANNELS 3 Zrotation Xrotation Yrotation
                JOINT lIndex2
                {
                  OFFSET 2.54057 -0.884171 1.56538
                  CHANNELS 3 Zrotation Xrotation Yrotation
                  End Site
                  {
                    OFFSET 1.62519 -0.234802 1.16502
                  }
                }
              }
              JOINT lMid1
              {
                OFFSET 8.24714 1.18213 3.41376
                CHANNELS 3 Zrotation Xrotation Yrotation
                JOINT lMid2
                {
                  OFFSET 3.10165 -0.590103 1.0647
                  CHANNELS 3 Zrotation Xrotation Yrotation
                  End Site
                  {
                    OFFSET 2.48547 -0.328903 0.83742
                  }
                }
              }
              JOINT lRing1
              {
                OFFSET 8.82822 0.546677 1.51678
                CHANNELS 3 Zrotation Xrotation Yrotation
                JOINT lRing2
                {
                  OFFSET 2.60934 -0.819778 -0.0198488
                  CHANNELS 3 Zrotation Xrotation Yrotation
                  End Site
                  {
                    OFFSET 2.33842 -0.294052 0.168128
                  }
                }
              }
              JOINT lPinky1
              {
                OFFSET 8.27202 -0.0477905 -0.4584
                CHANNELS 3 Zrotation Xrotation Yrotation
                JOINT lPinky2
                {
                  OFFSET 1.82734 -0.647385 -0.700984
                  CHANNELS 3 Zrotation Xrotation Yrotation
                  End Site
                  {
                    OFFSET 1.69225 -0.51767 -0.607171
                  }
                }
              }
            }
          }
        }
      }
    }
  }
  JOINT rButtock
  {
    OFFSET -8.77824 4.35084 1.2192
    CHANNELS 3 Zrotation Xrotation Yrotation
    JOINT rThigh
    {
      OFFSET 0 -1.70687 -2.19456
      CHANNELS 3 Zrotation Xrotation Yrotation
      JOINT rShin
      {
        OFFSET 0 -36.8199 0.73152
        CHANNELS 3 Zrotation Xrotation Yrotation
        JOINT rFoot
        {
          OFFSET 0.73152 -45.1104 -5.12064
          CHANNELS 3 Zrotation Xrotation Yrotation
          End Site
          {
            OFFSET -1.1221 -3.69964 12.103
          }
        }
      }
    }
  }
  JOINT lButtock
  {
    OFFSET 8.77824 4.35084 1.2192
    CHANNELS 3 Zrotation Xrotation Yrotation
    JOINT lThigh
    {
      OFFSET 0 -1.70687 -2.19456
      CHANNELS 3 Zrotation Xrotation Yrotation
      JOINT lShin
      {
        OFFSET 0 -36.8199 0.73152
        CHANNELS 3 Zrotation Xrotation Yrotation
        JOINT lFoot
        {
          OFFSET -0.73152 -45.1104 -5.12064
          CHANNELS 3 Zrotation Xrotation Yrotation
          End Site
          {
            OFFSET 1.1221 -3.69964 12.103
          }
        }
      }
    }
  }
}
MOTION
Frames:	7
Frame Time:	0.00833333
0.647569 84.4695 -131.403 0.0 0.0 0.0 -0.870572 -0.00416274 -0.0242194 -0.239932 -0.004883 -0.0415694 -7.99478e-15 7.95139e-16 2.60905e-16 -2.38945e-14 9.54166e-15 7.28359e-16 -0.0 0.0 0.0 -0.0 0.0 0.0 -3.87783e-15 -1.30064e-17 1.98785e-16 -8.1549e-14 -3.35449e-16 3.37934e-15 -1.4227e-12 4.19237e-13 5.725e-14 -1.63171e-11 -4.59317e-13 4.86625e-13 -3.84809e-11 -8.39947e-14 1.20861e-12 -6.6466e-11 -1.43125e-13 2.08167e-12 -3.84772e-11 -8.26944e-14 1.19907e-12 7.73091 5.47488 0.417314 -3.84816e-11 -8.42847e-14 1.20861e-12 2.90554 0.965183 0.102902 -3.84744e-11 -8.40859e-14 1.20464e-12 10.2786 0.731801 0.0259123 -3.84893e-11 -8.11041e-14 1.20543e-12 2.22167 -0.733487 -0.20892 -3.97443e-15 -1.20358e-17 0.0 -8.54764e-14 -1.36664e-16 1.19271e-15 -1.42886e-12 -4.29971e-13 4.13472e-14 -1.63163e-11 3.91134e-13 5.02528e-13 -3.84866e-11 -8.88078e-14 1.19271e-12 -6.64501e-11 -1.62208e-13 2.06816e-12 -3.84903e-11 -8.74653e-14 1.20225e-12 -7.73091 5.47488 -0.417314 -3.84867e-11 -8.90555e-14 1.19589e-12 -2.90554 0.965183 -0.102902 -3.84915e-11 -8.88567e-14 1.19986e-12 -10.2786 0.731801 -0.0259123 -3.84787e-11 -8.54774e-14 1.19907e-12 -2.22167 -0.733487 0.20892 -2.03217e-16 0.0 -3.88251e-19 -0.126007 -2.00808 -0.0156909 -0.00931178 -1.91645 -0.0777223 -0.533733 3.92363 0.141979 2.03217e-16 0.0 3.88251e-19 -1.19265 -5.21058 0.101657 0.000659612 3.88433 -0.0130466 0.539139 1.32551 -0.0888225
0.458763 83.4594 -132.073 -2.2944 3.0307 -0.7884 -0.65571 1.65827 -0.548639 0.816998 -2.32023 -0.133112 -6.51472 4.15528 -3.88037 7.92844 -2.83535 -7.00006 -0.0 0.0 0.0 -0.0 0.0 0.0 -1.95844e-14 -1.6887e-14 1.49255e-14 21.4737 6.71496 0.00573809 -4.21002 -1.91094 6.57778 0.000509787 0.503435 0.0707435 5.74401e-12 -2.44098e-10 4.7577e-10 1.07436e-11 -4.22607e-10 8.23513e-10 5.74697e-12 -2.44095e-10 4.75759e-10 7.73091 5.47488 0.417314 5.74327e-12 -2.44098e-10 4.75769e-10 2.90554 0.965183 0.102902 5.74917e-12 -2.44098e-10 4.75767e-10 10.2786 0.731801 0.0259123 5.73828e-12 -2.44095e-10 4.7577e-10 2.22167 -0.733487 -0.20892 -1.96893e-14 -1.68877e-14 1.47722e-14 -23.418 4.58003 1.5242 4.3366 -1.99417 -6.74745 -0.00167011 0.918692 -0.129057 3.45724e-10 1.17534e-10 -1.60733e-10 5.97391e-10 2.03057e-10 -2.8007e-10 3.45722e-10 1.17536e-10 -1.60721e-10 -7.73091 5.47488 -0.417314 3.45724e-10 1.17535e-10 -1.6073e-10 -2.90554 0.965183 -0.102902 3.4572e-10 1.17535e-10 -1.60728e-10 -10.2786 0.731801 -0.0259123 3.45731e-10 1.17537e-10 -1.6073e-10 -2.22167 -0.733487 0.20892 -2.03217e-16 0.0 -3.88251e-19 0.75069 -3.7447 0.544768 0.00816848 6.24885 0.067442 -0.698761 -1.09555 -1.78659 2.03217e-16 0.0 3.88251e-19 -0.312049 -6.75897 -0.221459 -0.00327421 11.1221 -0.12098 0.516373 -3.05096 -0.0987496
0.50379 83.469 -132.002 -2.3813 3.6185 -0.8995 -0.398483 3.42064 -1.11204 1.92818 -4.77675 -0.232257 -12.7887 8.48466 -8.04852 15.5569 -5.68213 -14.4545 -0.0 0.0 0.0 -0.0 0.0 0.0 -3.68437e-14 -3.53386e-14 3.22808e-14 44.1682 13.8272 0.0126595 -8.18663 -3.84692 13.5543 -0.000303522 1.02975 0.14472 4.49062e-11 -4.88314e-10 9.96389e-10 7.92637e-11 -8.45431e-10 1.72472e-09 4.49083e-11 -4.88311e-10 9.96376e-10 7.73091 5.47488 0.417314 4.49054e-11 -4.88315e-10 9.96387e-10 2.90554 0.965183 0.102902 4.49099e-11 -4.88315e-10 9.96388e-10 10.2786 0.731801 0.0259123 4.49033e-11 -4.88312e-10 9.96393e-10 2.22167 -0.733487 -0.20892 -3.69575e-14 -3.53411e-14 3.21783e-14 -48.449 9.41457 3.17296 8.41712 -4.01228 -13.9112 0.00107943 1.87267 -0.263185 7.58096e-10 2.40817e-10 -3.36162e-10 1.30988e-09 4.16079e-10 -5.85723e-10 7.58096e-10 2.40818e-10 -3.36147e-10 -7.73091 5.47488 -0.417314 7.58096e-10 2.40818e-10 -3.36159e-10 -2.90554 0.965183 -0.102902 7.58093e-10 2.40818e-10 -3.36159e-10 -10.2786 0.731801 -0.0259123 7.58102e-10 2.4082e-10 -3.36163e-10 -2.22167 -0.733487 0.20892 -2.03217e-16 0.0 -3.88251e-19 1.71278 -5.57526 1.13774 -0.0194224 14.8808 0.227646 -1.24243 -6.39004 -3.84988 2.03217e-16 0.0 3.88251e-19 0.598681 -8.39209 -0.564327 0.0238888 18.7727 -0.243318 0.489219 -7.67881 -0.117048
0.460504 83.4799 -131.936 -2.3922 3.2137 -0.981 -0.134407 4.98144 -1.60284 2.90851 -6.95085 -0.31821 -17.8354 12.2347 -11.8842 21.7416 -7.99815 -21.1903 -0.0 0.0 0.0 -0.0 0.0 0.0 -5.09975e-14 -5.0635e-14 4.43791e-14 64.417 20.1449 0.0182102 -11.3377 -5.43122 19.815 -0.0022013 1.5103 0.212296 9.41939e-11 -7.32126e-10 1.42489e-09 1.65163e-10 -1.26753e-09 2.46638e-09 9.41952e-11 -7.32121e-10 1.42488e-09 7.73091 5.47488 0.417314 9.4193e-11 -7.32127e-10 1.42489e-09 2.90554 0.965183 0.102902 9.41964e-11 -7.32126e-10 1.42489e-09 10.2786 0.731801 0.0259123 9.41934e-11 -7.32124e-10 1.4249e-09 2.22167 -0.733487 -0.20892 -5.11191e-14 -5.0639e-14 4.43166e-14 -71.0025 13.7006 4.69179 11.6276 -5.65132 -20.3332 0.00741774 2.75602 -0.387569 1.11414e-09 3.5278e-10 -4.84585e-10 1.92507e-09 6.09496e-10 -8.44347e-10 1.11415e-09 3.52782e-10 -4.84566e-10 -7.73091 5.47488 -0.417314 1.11414e-09 3.52783e-10 -4.84581e-10 -2.90554 0.965183 -0.102902 1.11414e-09 3.52782e-10 -4.84584e-10 -10.2786 0.731801 -0.0259123 1.11415e-09 3.52783e-10 -4.84589e-10 -2.22167 -0.733487 0.20892 -2.03217e-16 0.0 -3.88251e-19 2.60674 -7.2154 1.67545 -0.0882847 22.579 0.386074 -2.05437 -11.0809 -5.74963 2.03217e-16 0.0 3.88251e-19 1.39602 -9.85475 -0.875147 0.0787499 25.5974 -0.366013 0.466008 -11.8039 -0.120785
0.484826 83.4897 -131.88 -2.3714 3.3985 -1.0707 0.0794983 6.04004 -1.90678 3.57836 -8.419 -0.369207 -21.0262 14.7561 -14.6571 25.7329 -9.46708 -25.951 -0.0 0.0 0.0 -0.0 0.0 0.0 -5.73873e-14 -5.80432e-14 4.33351e-14 78.5556 24.4761 0.0191441 -13.3262 -6.42341 24.2079 -0.00432041 1.87645 0.263813 1.68795e-10 -9.74923e-10 1.62311e-09 2.94511e-10 -1.68783e-09 2.80914e-09 1.68796e-10 -9.74918e-10 1.62309e-09 7.73091 5.47488 0.417314 1.68794e-10 -9.74924e-10 1.62311e-09 2.90554 0.965183 0.102902 1.68797e-10 -9.74923e-10 1.62311e-09 10.2786 0.731801 0.0259123 1.68796e-10 -9.74921e-10 1.62312e-09 2.22167 -0.733487 -0.20892 -5.7514e-14 -5.80484e-14 4.32854e-14 -86.8233 16.6537 5.77115 13.6304 -6.66007 -24.8135 0.0147292 3.46283 -0.487268 1.32938e-09 4.36445e-10 -5.6549e-10 2.297e-09 7.53903e-10 -9.85395e-10 1.32938e-09 4.36447e-10 -5.65471e-10 -7.73091 5.47488 -0.417314 1.32938e-09 4.36448e-10 -5.65487e-10 -2.90554 0.965183 -0.102902 1.32938e-09 4.36447e-10 -5.6549e-10 -10.2786 0.731801 -0.0259123 1.32939e-09 4.36448e-10 -5.65496e-10 -2.22167 -0.733487 0.20892 -2.03217e-16 0.0 -3.88251e-19 3.25886 -8.38169 2.06677 -0.165282 27.9433 0.511321 -2.80714 -14.3172 -7.12182 2.03217e-16 0.0 3.88251e-19 1.94704 -10.8921 -1.09996 0.13697 30.3579 -0.463479 0.461519 -14.672 -0.0853586
0.457314 83.4811 -131.888 -2.3718 3.1539 -0.9788 0.194318 6.38671 -1.94527 3.81856 -8.89491 -0.370191 -22.1612 15.7294 -15.7852 27.2451 -10.0913 -27.8476 -0.0 0.0 0.0 -0.0 0.0 0.0 -5.1492e-14 -5.23113e-14 1.92899e-14 84.1534 26.0208 -0.000882986 -14.077 -6.79432 25.9691 -0.0056092 2.06793 0.290765 2.95252e-10 -1.2395e-09 1.44178e-09 5.1295e-10 -2.14569e-09 2.49445e-09 2.95253e-10 -1.2395e-09 1.44176e-09 7.73091 5.47488 0.417314 2.9525e-10 -1.2395e-09 1.44178e-09 2.90554 0.965183 0.102902 2.95254e-10 -1.2395e-09 1.44178e-09 10.2786 0.731801 0.0259123 2.95252e-10 -1.2395e-09 1.44179e-09 2.22167 -0.733487 -0.20892 -5.16231e-14 -5.23173e-14 1.92068e-14 -92.9594 17.7722 6.15726 14.3539 -7.01086 -26.5447 0.020505 3.9866 -0.561233 1.32323e-09 4.85666e-10 -5.35364e-10 2.28646e-09 8.38581e-10 -9.33181e-10 1.32324e-09 4.85669e-10 -5.35346e-10 -7.73091 5.47488 -0.417314 1.32324e-09 4.85669e-10 -5.35361e-10 -2.90554 0.965183 -0.102902 1.32323e-09 4.85668e-10 -5.35363e-10 -10.2786 0.731801 -0.0259123 1.32324e-09 4.85668e-10 -5.3537e-10 -2.22167 -0.733487 0.20892 -2.03217e-16 0.0 -3.88251e-19 3.54496 -8.88839 2.24889 -0.203457 30.0397 0.565369 -3.14223 -15.5623 -7.66961 2.03217e-16 0.0 3.88251e-19 2.17101 -11.3417 -1.21032 0.164465 32.2322 -0.505934 0.487254 -15.7787 0.00850381
0.437016 83.4748 -131.906 -2.3633 2.9456 -0.9114 0.233291 6.22554 -1.79335 3.7531 -8.66229 -0.33517 -21.9588 15.6426 -15.6934 27.1217 -10.21 -27.6715 -0.0 0.0 0.0 -0.0 0.0 0.0 -3.68891e-14 -3.72934e-14 -2.09656e-14 83.6496 25.5754 -0.0351127 -14.0257 -6.77764 25.8375 -0.00599052 2.13533 0.300253 4.57965e-10 -1.51853e-09 9.92073e-10 7.9368e-10 -2.62848e-09 1.71486e-09 4.57969e-10 -1.51853e-09 9.92052e-10 7.73091 5.47488 0.417314 4.57963e-10 -1.51854e-09 9.92071e-10 2.90554 0.965183 0.102902 4.57969e-10 -1.51854e-09 9.92074e-10 10.2786 0.731801 0.0259123 4.57964e-10 -1.51853e-09 9.92082e-10 2.22167 -0.733487 -0.20892 -3.70239e-14 -3.73e-14 -2.11147e-14 -92.1192 17.5878 6.02434 14.2489 -6.9521 -26.2991 0.0245049 4.3766 -0.616341 1.16011e-09 5.10037e-10 -4.26716e-10 2.00473e-09 8.80172e-10 -7.44285e-10 1.16011e-09 5.10041e-10 -4.26701e-10 -7.73091 5.47488 -0.417314 1.16011e-09 5.10041e-10 -4.26713e-10 -2.90554 0.965183 -0.102902 1.1601e-09 5.10039e-10 -4.26713e-10 -10.2786 0.731801 -0.0259123 1.16011e-09 5.10039e-10 -4.2672e-10 -2.22167 -0.733487 0.20892 -2.03217e-16 0.0 -3.88251e-19 3.56126 -8.9243 2.27996 -0.200098 29.802 0.560142 -3.09708 -15.3977 -7.59771 2.03217e-16 0.0 3.88251e-19 2.1655 -11.3714 -1.23755 0.160263 32.0449 -0.502743 0.532093 -15.6272 0.143508
